<svg xmlns="http://www.w3.org/2000/svg" viewBox="0 0 780 220" role="img" aria-label="Ánimo horizontal lockup">
  <title>Ánimo — horizontal lockup</title>

  
  <g transform="translate(10, 10)">
    <circle cx="100" cy="100" r="88" fill="#7A8C5D"></circle>
    <path d="M 58 166 C 48 158, 50 146, 58 142 C 66 138, 72 144, 72 152 C 78 136, 86 120, 100 106" stroke="#F5EBD8" stroke-width="6" stroke-linecap="round" fill="none"></path>
    <circle cx="58" cy="134" r="8.5" fill="#F5EBD8"></circle>
    <path d="M 142 166 C 152 158, 150 146, 142 142 C 134 138, 128 144, 128 152 C 122 136, 114 120, 100 106" stroke="#F5EBD8" stroke-width="6" stroke-linecap="round" fill="none"></path>
    <circle cx="142" cy="134" r="8.5" fill="#F5EBD8"></circle>
    <path d="M 100 106 L 100 86" stroke="#F5EBD8" stroke-width="5.5" stroke-linecap="round" fill="none"></path>
    <path d="M 100 90 C 85 86, 76 73, 78 58 C 91 60, 100 71, 100 86 Z" fill="#E8826B"></path>
    <path d="M 100 90 C 115 86, 124 73, 122 58 C 109 60, 100 71, 100 86 Z" fill="#F5A623"></path>
    <circle cx="100" cy="50" r="4" fill="#C85A3D"></circle>
  </g>

  
  <g transform="translate(220, 30)" fill="#4A5D3A">
    
    <path d="M49.950 139.725L49.950 139.725L49.950 138L47.550 137.925L47.550 89.475Q47.550 86.625 46.012 84.900Q44.475 83.175 41.850 83.175L41.850 83.175Q39.900 83.175 38.438 84.112Q36.975 85.050 36.975 86.625L36.975 86.625L36.975 94.800Q36.975 101.100 32.663 104.550Q28.350 108 20.325 108L20.325 108Q13.500 108 10.162 105.113Q6.825 102.225 6.825 97.050L6.825 97.050Q6.825 92.100 11.325 87.150Q15.825 82.200 24.863 78.900Q33.900 75.600 47.625 75.600L47.625 75.600Q63.525 75.600 71.250 81.413Q78.975 87.225 78.975 97.275L78.975 97.275L78.975 133.125Q78.975 134.550 79.688 135.488Q80.400 136.425 81.900 136.425L81.900 136.425Q83.175 136.425 83.962 135.750Q84.750 135.075 85.425 134.400L85.425 134.400Q85.950 133.875 86.513 133.500Q87.075 133.125 87.825 133.125L87.825 133.125Q89.100 133.125 89.662 134.063Q90.225 135 90.225 136.425L90.225 136.425Q90.225 139.725 87.825 143.363Q85.425 147 80.662 149.550Q75.900 152.100 68.850 152.100L68.850 152.100Q60.525 152.100 55.237 148.575Q49.950 145.050 49.950 139.725ZM4.125 134.025L4.125 134.025Q4.125 123.750 13.425 117.787Q22.725 111.825 39.525 111.825L39.525 111.825Q43.950 111.825 47.250 112.425Q50.550 113.025 52.650 114.150L52.650 114.150L50.100 120.675Q48.525 119.775 47.137 119.400Q45.750 119.025 44.100 119.025L44.100 119.025Q40.425 119.025 38.288 121.463Q36.150 123.900 36.150 128.475L36.150 128.475Q36.150 133.275 38.250 135.787Q40.350 138.300 43.800 138.300L43.800 138.300Q45.975 138.300 47.887 137.287Q49.800 136.275 50.775 134.925L50.775 134.925L52.575 140.925Q48.975 146.250 42.112 149.175Q35.250 152.100 27.450 152.100L27.450 152.100Q16.950 152.100 10.537 146.925Q4.125 141.750 4.125 134.025ZM133.275 82.200L133.275 82.200L133.275 134.250Q133.275 137.250 133.725 138.450Q134.175 139.650 135.300 140.250L135.300 140.250L136.800 141.075Q139.275 142.500 139.275 145.200L139.275 145.200Q139.275 150 133.500 150L133.500 150L100.275 150Q97.275 150 95.925 148.800Q94.575 147.600 94.575 145.500L94.575 145.500Q94.575 144 95.325 142.875Q96.075 141.750 97.800 141L97.800 141L99.450 140.250Q100.575 139.725 101.025 138.488Q101.475 137.250 101.475 134.250L101.475 134.250L101.475 99Q101.475 96.600 100.837 95.588Q100.200 94.575 98.925 94.200L98.925 94.200L97.275 93.675Q95.700 93.150 94.987 92.175Q94.275 91.200 94.275 89.700L94.275 89.700Q94.275 87.900 95.250 86.850Q96.225 85.800 98.925 84.750L98.925 84.750L115.575 78.300Q119.400 76.800 121.762 76.125Q124.125 75.450 126.375 75.450L126.375 75.450Q129.750 75.450 131.512 77.362Q133.275 79.275 133.275 82.200ZM133.200 98.175L130.575 100.500L126.075 95.700L128.325 93.600Q138.900 83.775 146.400 79.612Q153.900 75.450 160.275 75.450L160.275 75.450Q170.025 75.450 175.537 82.125Q181.050 88.800 182.025 99.450L182.025 99.450L185.400 134.250Q185.700 137.250 186 138.488Q186.300 139.725 187.425 140.250L187.425 140.250L189.075 141Q190.800 141.750 191.550 142.875Q192.300 144 192.300 145.500L192.300 145.500Q192.300 147.600 190.950 148.800Q189.600 150 186.600 150L186.600 150L153 150Q147.225 150 147.225 145.200L147.225 145.200Q147.225 142.500 149.700 141.075L149.700 141.075L151.200 140.250Q152.325 139.650 152.925 138.450Q153.525 137.250 153.225 134.250L153.225 134.250L150.375 103.950Q149.925 99.150 148.087 96.750Q146.250 94.350 142.425 94.350L142.425 94.350Q140.100 94.350 137.662 95.363Q135.225 96.375 133.200 98.175L133.200 98.175ZM236.250 82.200L236.250 82.200L236.250 134.250Q236.250 137.250 236.700 138.488Q237.150 139.725 238.275 140.250L238.275 140.250L239.925 141Q241.650 141.750 242.400 142.875Q243.150 144 243.150 145.500L243.150 145.500Q243.150 147.600 241.800 148.800Q240.450 150 237.450 150L237.450 150L203.250 150Q200.250 150 198.900 148.800Q197.550 147.600 197.550 145.500L197.550 145.500Q197.550 144 198.300 142.875Q199.050 141.750 200.775 141L200.775 141L202.425 140.250Q203.550 139.725 204 138.488Q204.450 137.250 204.450 134.250L204.450 134.250L204.450 99Q204.450 96.600 203.813 95.588Q203.175 94.575 201.900 94.200L201.900 94.200L200.250 93.675Q198.675 93.150 197.962 92.175Q197.250 91.200 197.250 89.700L197.250 89.700Q197.250 87.900 198.225 86.850Q199.200 85.800 201.900 84.750L201.900 84.750L218.550 78.300Q222.600 76.725 224.925 76.088Q227.250 75.450 229.050 75.450L229.050 75.450Q232.650 75.450 234.450 77.362Q236.250 79.275 236.250 82.200ZM218.700 68.850L218.700 68.850Q210.300 68.850 205.425 64.950Q200.550 61.050 200.550 54.300L200.550 54.300Q200.550 47.625 205.425 43.800Q210.300 39.975 218.700 39.975L218.700 39.975Q227.100 39.975 231.975 43.800Q236.850 47.625 236.850 54.300L236.850 54.300Q236.850 61.050 231.975 64.950Q227.100 68.850 218.700 68.850ZM289.050 82.200L289.050 82.200L289.050 134.250Q289.050 137.250 289.500 138.450Q289.950 139.650 291.075 140.250L291.075 140.250L292.575 141.075Q295.050 142.500 295.050 145.200L295.050 145.200Q295.050 150 289.275 150L289.275 150L256.050 150Q253.050 150 251.700 148.800Q250.350 147.600 250.350 145.500L250.350 145.500Q250.350 144 251.100 142.875Q251.850 141.750 253.575 141L253.575 141L255.225 140.250Q256.350 139.725 256.800 138.488Q257.250 137.250 257.250 134.250L257.250 134.250L257.250 99Q257.250 96.600 256.613 95.588Q255.975 94.575 254.700 94.200L254.700 94.200L253.050 93.675Q251.475 93.150 250.762 92.175Q250.050 91.200 250.050 89.700L250.050 89.700Q250.050 87.900 251.025 86.850Q252 85.800 254.700 84.750L254.700 84.750L271.350 78.300Q275.175 76.800 277.538 76.125Q279.900 75.450 282.150 75.450L282.150 75.450Q285.525 75.450 287.288 77.362Q289.050 79.275 289.050 82.200ZM288.975 98.175L286.350 100.500L281.850 95.700L284.100 93.600Q294.675 83.475 302.288 79.463Q309.900 75.450 316.425 75.450L316.425 75.450Q326.475 75.450 332.438 82.088Q338.400 88.725 338.400 99.450L338.400 99.450L338.400 134.250Q338.400 137.250 338.850 138.450Q339.300 139.650 340.425 140.250L340.425 140.250L341.925 141.075Q344.400 142.500 344.400 145.200L344.400 145.200Q344.400 150 338.625 150L338.625 150L306.375 150Q300.600 150 300.600 145.200L300.600 145.200Q300.600 142.500 303.075 141.075L303.075 141.075L304.575 140.250Q305.700 139.650 306.150 138.450Q306.600 137.250 306.600 134.250L306.600 134.250L306.600 103.950Q306.600 99.150 304.575 96.750Q302.550 94.350 298.575 94.350L298.575 94.350Q296.100 94.350 293.587 95.325Q291.075 96.300 288.975 98.175L288.975 98.175ZM338.325 98.175L335.700 100.500L331.200 95.700L333.450 93.600Q343.875 83.850 351.188 79.650Q358.500 75.450 364.650 75.450L364.650 75.450Q374.400 75.450 379.913 82.125Q385.425 88.800 386.400 99.450L386.400 99.450L389.775 134.250Q390.075 137.250 390.375 138.488Q390.675 139.725 391.800 140.250L391.800 140.250L393.450 141Q395.175 141.750 395.925 142.875Q396.675 144 396.675 145.500L396.675 145.500Q396.675 147.600 395.325 148.800Q393.975 150 390.975 150L390.975 150L357.375 150Q351.600 150 351.600 145.200L351.600 145.200Q351.600 142.500 354.075 141.075L354.075 141.075L355.575 140.250Q356.700 139.650 357.300 138.450Q357.900 137.250 357.600 134.250L357.600 134.250L354.750 103.950Q354.300 99.150 352.462 96.750Q350.625 94.350 346.800 94.350L346.800 94.350Q344.700 94.350 342.488 95.400Q340.275 96.450 338.325 98.175L338.325 98.175ZM444.900 75.450L444.900 75.450Q457.650 75.450 467.175 80.288Q476.700 85.125 481.987 93.825Q487.275 102.525 487.275 114.075L487.275 114.075Q487.275 124.725 481.725 133.350Q476.175 141.975 466.387 147.037Q456.600 152.100 443.700 152.100L443.700 152.100Q430.950 152.100 421.425 147.188Q411.900 142.275 406.613 133.575Q401.325 124.875 401.325 113.475L401.325 113.475Q401.325 102.600 406.875 94.013Q412.425 85.425 422.212 80.438Q432 75.450 444.900 75.450ZM450.375 141.225L450.375 141.225Q453.225 140.550 454.725 137.250Q456.225 133.950 456.075 127.650Q455.925 121.350 453.825 111.675L453.825 111.675Q451.875 102.375 449.438 96.525Q447 90.675 444.150 88.125Q441.300 85.575 438.225 86.325L438.225 86.325Q435.375 87 433.875 90.300Q432.375 93.600 432.563 99.863Q432.750 106.125 434.775 115.875L434.775 115.875Q436.725 125.100 439.200 130.988Q441.675 136.875 444.488 139.387Q447.300 141.900 450.375 141.225Z"></path>
  </g>
  
  <g transform="translate(220, 30)">
    <path d="M 18 14&#xA;             C 26 2, 46 -2, 60 4&#xA;             C 52 18, 34 26, 20 22 Z" fill="#E8826B"></path>
  </g>
</svg>