<svg xmlns="http://www.w3.org/2000/svg" viewBox="0 0 400 400" role="img" aria-label="Ánimo stacked lockup">
  <title>Ánimo — stacked lockup</title>

  <g transform="translate(100, 10)">
    <circle cx="100" cy="100" r="88" fill="#7A8C5D"></circle>
    <path d="M 58 166 C 48 158, 50 146, 58 142 C 66 138, 72 144, 72 152 C 78 136, 86 120, 100 106" stroke="#F5EBD8" stroke-width="6" stroke-linecap="round" fill="none"></path>
    <circle cx="58" cy="134" r="8.5" fill="#F5EBD8"></circle>
    <path d="M 142 166 C 152 158, 150 146, 142 142 C 134 138, 128 144, 128 152 C 122 136, 114 120, 100 106" stroke="#F5EBD8" stroke-width="6" stroke-linecap="round" fill="none"></path>
    <circle cx="142" cy="134" r="8.5" fill="#F5EBD8"></circle>
    <path d="M 100 106 L 100 86" stroke="#F5EBD8" stroke-width="5.5" stroke-linecap="round" fill="none"></path>
    <path d="M 100 90 C 85 86, 76 73, 78 58 C 91 60, 100 71, 100 86 Z" fill="#E8826B"></path>
    <path d="M 100 90 C 115 86, 124 73, 122 58 C 109 60, 100 71, 100 86 Z" fill="#F5A623"></path>
    <circle cx="100" cy="50" r="4" fill="#C85A3D"></circle>
  </g>

  <g transform="translate(45, 230)" fill="#4A5D3A">
    <path d="M31.968 89.424L31.968 89.424L31.968 88.320L30.432 88.272L30.432 57.264Q30.432 55.440 29.448 54.336Q28.464 53.232 26.784 53.232L26.784 53.232Q25.536 53.232 24.600 53.832Q23.664 54.432 23.664 55.440L23.664 55.440L23.664 60.672Q23.664 64.704 20.904 66.912Q18.144 69.120 13.008 69.120L13.008 69.120Q8.640 69.120 6.504 67.272Q4.368 65.424 4.368 62.112L4.368 62.112Q4.368 58.944 7.248 55.776Q10.128 52.608 15.912 50.496Q21.696 48.384 30.480 48.384L30.480 48.384Q40.656 48.384 45.600 52.104Q50.544 55.824 50.544 62.256L50.544 62.256L50.544 85.200Q50.544 86.112 51 86.712Q51.456 87.312 52.416 87.312L52.416 87.312Q53.232 87.312 53.736 86.880Q54.240 86.448 54.672 86.016L54.672 86.016Q55.008 85.680 55.368 85.440Q55.728 85.200 56.208 85.200L56.208 85.200Q57.024 85.200 57.384 85.800Q57.744 86.400 57.744 87.312L57.744 87.312Q57.744 89.424 56.208 91.752Q54.672 94.080 51.624 95.712Q48.576 97.344 44.064 97.344L44.064 97.344Q38.736 97.344 35.352 95.088Q31.968 92.832 31.968 89.424ZM2.640 85.776L2.640 85.776Q2.640 79.200 8.592 75.384Q14.544 71.568 25.296 71.568L25.296 71.568Q28.128 71.568 30.240 71.952Q32.352 72.336 33.696 73.056L33.696 73.056L32.064 77.232Q31.056 76.656 30.168 76.416Q29.280 76.176 28.224 76.176L28.224 76.176Q25.872 76.176 24.504 77.736Q23.136 79.296 23.136 82.224L23.136 82.224Q23.136 85.296 24.480 86.904Q25.824 88.512 28.032 88.512L28.032 88.512Q29.424 88.512 30.648 87.864Q31.872 87.216 32.496 86.352L32.496 86.352L33.648 90.192Q31.344 93.600 26.952 95.472Q22.560 97.344 17.568 97.344L17.568 97.344Q10.848 97.344 6.744 94.032Q2.640 90.720 2.640 85.776ZM85.296 52.608L85.296 52.608L85.296 85.920Q85.296 87.840 85.584 88.608Q85.872 89.376 86.592 89.760L86.592 89.760L87.552 90.288Q89.136 91.200 89.136 92.928L89.136 92.928Q89.136 96 85.440 96L85.440 96L64.176 96Q62.256 96 61.392 95.232Q60.528 94.464 60.528 93.120L60.528 93.120Q60.528 92.160 61.008 91.440Q61.488 90.720 62.592 90.240L62.592 90.240L63.648 89.760Q64.368 89.424 64.656 88.632Q64.944 87.840 64.944 85.920L64.944 85.920L64.944 63.360Q64.944 61.824 64.536 61.176Q64.128 60.528 63.312 60.288L63.312 60.288L62.256 59.952Q61.248 59.616 60.792 58.992Q60.336 58.368 60.336 57.408L60.336 57.408Q60.336 56.256 60.960 55.584Q61.584 54.912 63.312 54.240L63.312 54.240L73.968 50.112Q76.416 49.152 77.928 48.720Q79.440 48.288 80.880 48.288L80.880 48.288Q83.040 48.288 84.168 49.512Q85.296 50.736 85.296 52.608ZM85.248 62.832L83.568 64.320L80.688 61.248L82.128 59.904Q88.896 53.616 93.696 50.952Q98.496 48.288 102.576 48.288L102.576 48.288Q108.816 48.288 112.344 52.560Q115.872 56.832 116.496 63.648L116.496 63.648L118.656 85.920Q118.848 87.840 119.040 88.632Q119.232 89.424 119.952 89.760L119.952 89.760L121.008 90.240Q122.112 90.720 122.592 91.440Q123.072 92.160 123.072 93.120L123.072 93.120Q123.072 94.464 122.208 95.232Q121.344 96 119.424 96L119.424 96L97.920 96Q94.224 96 94.224 92.928L94.224 92.928Q94.224 91.200 95.808 90.288L95.808 90.288L96.768 89.760Q97.488 89.376 97.872 88.608Q98.256 87.840 98.064 85.920L98.064 85.920L96.240 66.528Q95.952 63.456 94.776 61.920Q93.600 60.384 91.152 60.384L91.152 60.384Q89.664 60.384 88.104 61.032Q86.544 61.680 85.248 62.832L85.248 62.832ZM151.200 52.608L151.200 52.608L151.200 85.920Q151.200 87.840 151.488 88.632Q151.776 89.424 152.496 89.760L152.496 89.760L153.552 90.240Q154.656 90.720 155.136 91.440Q155.616 92.160 155.616 93.120L155.616 93.120Q155.616 94.464 154.752 95.232Q153.888 96 151.968 96L151.968 96L130.080 96Q128.160 96 127.296 95.232Q126.432 94.464 126.432 93.120L126.432 93.120Q126.432 92.160 126.912 91.440Q127.392 90.720 128.496 90.240L128.496 90.240L129.552 89.760Q130.272 89.424 130.560 88.632Q130.848 87.840 130.848 85.920L130.848 85.920L130.848 63.360Q130.848 61.824 130.440 61.176Q130.032 60.528 129.216 60.288L129.216 60.288L128.160 59.952Q127.152 59.616 126.696 58.992Q126.240 58.368 126.240 57.408L126.240 57.408Q126.240 56.256 126.864 55.584Q127.488 54.912 129.216 54.240L129.216 54.240L139.872 50.112Q142.464 49.104 143.952 48.696Q145.440 48.288 146.592 48.288L146.592 48.288Q148.896 48.288 150.048 49.512Q151.200 50.736 151.200 52.608ZM139.968 44.064L139.968 44.064Q134.592 44.064 131.472 41.568Q128.352 39.072 128.352 34.752L128.352 34.752Q128.352 30.480 131.472 28.032Q134.592 25.584 139.968 25.584L139.968 25.584Q145.344 25.584 148.464 28.032Q151.584 30.480 151.584 34.752L151.584 34.752Q151.584 39.072 148.464 41.568Q145.344 44.064 139.968 44.064ZM184.992 52.608L184.992 52.608L184.992 85.920Q184.992 87.840 185.280 88.608Q185.568 89.376 186.288 89.760L186.288 89.760L187.248 90.288Q188.832 91.200 188.832 92.928L188.832 92.928Q188.832 96 185.136 96L185.136 96L163.872 96Q161.952 96 161.088 95.232Q160.224 94.464 160.224 93.120L160.224 93.120Q160.224 92.160 160.704 91.440Q161.184 90.720 162.288 90.240L162.288 90.240L163.344 89.760Q164.064 89.424 164.352 88.632Q164.640 87.840 164.640 85.920L164.640 85.920L164.640 63.360Q164.640 61.824 164.232 61.176Q163.824 60.528 163.008 60.288L163.008 60.288L161.952 59.952Q160.944 59.616 160.488 58.992Q160.032 58.368 160.032 57.408L160.032 57.408Q160.032 56.256 160.656 55.584Q161.280 54.912 163.008 54.240L163.008 54.240L173.664 50.112Q176.112 49.152 177.624 48.720Q179.136 48.288 180.576 48.288L180.576 48.288Q182.736 48.288 183.864 49.512Q184.992 50.736 184.992 52.608ZM184.944 62.832L183.264 64.320L180.384 61.248L181.824 59.904Q188.592 53.424 193.464 50.856Q198.336 48.288 202.512 48.288L202.512 48.288Q208.944 48.288 212.760 52.536Q216.576 56.784 216.576 63.648L216.576 63.648L216.576 85.920Q216.576 87.840 216.864 88.608Q217.152 89.376 217.872 89.760L217.872 89.760L218.832 90.288Q220.416 91.200 220.416 92.928L220.416 92.928Q220.416 96 216.720 96L216.720 96L196.080 96Q192.384 96 192.384 92.928L192.384 92.928Q192.384 91.200 193.968 90.288L193.968 90.288L194.928 89.760Q195.648 89.376 195.936 88.608Q196.224 87.840 196.224 85.920L196.224 85.920L196.224 66.528Q196.224 63.456 194.928 61.920Q193.632 60.384 191.088 60.384L191.088 60.384Q189.504 60.384 187.896 61.008Q186.288 61.632 184.944 62.832L184.944 62.832ZM216.528 62.832L214.848 64.320L211.968 61.248L213.408 59.904Q220.080 53.664 224.760 50.976Q229.440 48.288 233.376 48.288L233.376 48.288Q239.616 48.288 243.144 52.560Q246.672 56.832 247.296 63.648L247.296 63.648L249.456 85.920Q249.648 87.840 249.840 88.632Q250.032 89.424 250.752 89.760L250.752 89.760L251.808 90.240Q252.912 90.720 253.392 91.440Q253.872 92.160 253.872 93.120L253.872 93.120Q253.872 94.464 253.008 95.232Q252.144 96 250.224 96L250.224 96L228.720 96Q225.024 96 225.024 92.928L225.024 92.928Q225.024 91.200 226.608 90.288L226.608 90.288L227.568 89.760Q228.288 89.376 228.672 88.608Q229.056 87.840 228.864 85.920L228.864 85.920L227.040 66.528Q226.752 63.456 225.576 61.920Q224.400 60.384 221.952 60.384L221.952 60.384Q220.608 60.384 219.192 61.056Q217.776 61.728 216.528 62.832L216.528 62.832ZM284.736 48.288L284.736 48.288Q292.896 48.288 298.992 51.384Q305.088 54.480 308.472 60.048Q311.856 65.616 311.856 73.008L311.856 73.008Q311.856 79.824 308.304 85.344Q304.752 90.864 298.488 94.104Q292.224 97.344 283.968 97.344L283.968 97.344Q275.808 97.344 269.712 94.200Q263.616 91.056 260.232 85.488Q256.848 79.920 256.848 72.624L256.848 72.624Q256.848 65.664 260.400 60.168Q263.952 54.672 270.216 51.480Q276.480 48.288 284.736 48.288ZM288.240 90.384L288.240 90.384Q290.064 89.952 291.024 87.840Q291.984 85.728 291.888 81.696Q291.792 77.664 290.448 71.472L290.448 71.472Q289.200 65.520 287.640 61.776Q286.080 58.032 284.256 56.400Q282.432 54.768 280.464 55.248L280.464 55.248Q278.640 55.680 277.680 57.792Q276.720 59.904 276.840 63.912Q276.960 67.920 278.256 74.160L278.256 74.160Q279.504 80.064 281.088 83.832Q282.672 87.600 284.472 89.208Q286.272 90.816 288.240 90.384Z"></path>
  </g>
  <g transform="translate(45, 230)">
    <path d="M 11 8&#xA;             C 16 0, 28 -3, 38 1&#xA;             C 33 11, 22 16, 13 14 Z" fill="#E8826B"></path>
  </g>
</svg>