<svg xmlns="http://www.w3.org/2000/svg" viewBox="0 0 200 200" role="img" aria-label="Ánimo mark monochrome">
  <title>Ánimo — monochrome mark (for dark backgrounds)</title>
  <circle cx="100" cy="100" r="88" fill="#4A5D3A"></circle>
  <g fill="#F8F4EE" stroke="#F8F4EE">
    <path d="M 58 166 C 48 158, 50 146, 58 142 C 66 138, 72 144, 72 152 C 78 136, 86 120, 100 106" stroke-width="6" stroke-linecap="round" fill="none"></path>
    <circle cx="58" cy="134" r="8.5" stroke="none"></circle>
    <path d="M 142 166 C 152 158, 150 146, 142 142 C 134 138, 128 144, 128 152 C 122 136, 114 120, 100 106" stroke-width="6" stroke-linecap="round" fill="none"></path>
    <circle cx="142" cy="134" r="8.5" stroke="none"></circle>
    <path d="M 100 106 L 100 86" stroke-width="5.5" stroke-linecap="round" fill="none"></path>
    <path d="M 100 90 C 85 86, 76 73, 78 58 C 91 60, 100 71, 100 86 Z" stroke="none"></path>
    <path d="M 100 90 C 115 86, 124 73, 122 58 C 109 60, 100 71, 100 86 Z" stroke="none"></path>
    <circle cx="100" cy="50" r="4" stroke="none"></circle>
  </g>
</svg>